<?xml version="1.0" encoding="utf-8"?>
<!-- Generator: Adobe Illustrator 27.7.0, SVG Export Plug-In . SVG Version: 6.00 Build 0)  -->
<svg version="1.1" id="Layer_1" xmlns="http://www.w3.org/2000/svg" xmlns:xlink="http://www.w3.org/1999/xlink" x="0px" y="0px"
	 viewBox="0 0 120.5 10" style="enable-background:new 0 0 120.5 10;" xml:space="preserve">
<g>
	<path d="M20,0.2c2,0,3.6,1.6,3.6,3.6c0,2-1.6,3.6-3.6,3.6h-5.4v2.3h-3.7V0.2H20z M19.1,4.6c0.2,0,0.4-0.1,0.6-0.2
		c0.2-0.2,0.2-0.4,0.2-0.6c0-0.2-0.1-0.4-0.2-0.6C19.5,3.1,19.3,3,19.1,3h-4.5v1.6H19.1z"/>
	<path d="M37.4,4.6v0.7c0,3.6-2.9,4.6-6.5,4.6c-3.6,0-6.5-1-6.5-4.6V4.6C24.4,1,27.4,0,30.9,0C34.5,0,37.4,1,37.4,4.6z M33.7,4.9
		c0-1.5-1.3-1.8-2.8-1.8c-1.5,0-2.8,0.3-2.8,1.8v0.2c0,1.6,1.3,1.8,2.8,1.9c1.5,0,2.8-0.3,2.8-1.9V4.9z"/>
	<path d="M44.7,3.9c2.6,0.1,6.4,0.3,6.4,2.7c0,2.7-3.1,3.4-6.4,3.4c-3.3,0-6.1-0.4-6.4-3.4h3.9c0.4,0.7,1.4,0.9,2.6,0.9
		c1.2,0,2.6-0.2,2.6-0.9c0-0.4-1.2-0.5-2.6-0.6c-2.6-0.1-6.4-0.3-6.4-2.7c0-2.7,3.1-3.4,6.4-3.4c3.3,0,6.1,0.4,6.4,3.4h-3.9
		c-0.4-0.7-1.4-0.9-2.6-0.9c-1.2,0-2.6,0.2-2.6,0.9C42.1,3.8,43.2,3.8,44.7,3.9z"/>
	<path d="M55.6,9.7V3.3h-4.4v-3h12.5v3h-4.4v6.5H55.6z"/>
	<path d="M81.1,0.2h4.2l-4.2,9.5h-4.4L74.6,5l-2.1,4.7h-4.4L64,0.2h4.2l2.2,6l2.2-6h4.2l2.2,6L81.1,0.2z"/>
	<path d="M87.9,0.2h4.4l5.1,9.5h-4.2l-0.7-1.6h-4.8L87,9.7h-4.2L87.9,0.2z M88.8,5.8h2.6L90.1,3L88.8,5.8z"/>
	<path d="M102,6.8l2.9-6.6h4.2l-4.9,9.5h-4.4l-4.9-9.5h4.2L102,6.8z"/>
	<path d="M109.3,0.2h11.1v2.4H113v1.2h7.4v2.2H113v1.2h7.4v2.4h-11.1V0.2z"/>
</g>
<circle cx="4.7" cy="5" r="4.7"/>
</svg>
